<svg width="400" height="400" viewBox="0 0 400 400" xmlns="http://www.w3.org/2000/svg">
  <!-- Bottle 1 (Blue) -->
  <path d="M150 350 L150 200 Q150 180 170 180 L190 180 Q210 180 210 200 L210 350 Z" fill="#3b82f6" />
  <rect x="170" y="160" width="20" height="20" fill="#1d4ed8" />
  <rect x="160" y="140" width="40" height="20" fill="#eff6ff" rx="5" />
  
  <!-- Bottle 2 (Green) -->
  <path d="M230 350 L230 220 Q230 200 250 200 L270 200 Q290 200 290 220 L290 350 Z" fill="#22c55e" />
  <rect x="250" y="180" width="20" height="20" fill="#15803d" />
  <rect x="240" y="160" width="40" height="20" fill="#eff6ff" rx="5" />
  
  <!-- Bottle 3 (Yellow/Orange) -->
  <path d="M80 350 L80 250 Q80 230 100 230 L120 230 Q140 230 140 250 L140 350 Z" fill="#eab308" />
  <rect x="100" y="210" width="20" height="20" fill="#a16207" />
  <rect x="90" y="190" width="40" height="20" fill="#eff6ff" rx="5" />
</svg>
